<mxfile host="65bd71144e">
    <diagram name="第 1 页" id="dQIl0Y4xzLzA5Zrj5Q_T">
        <mxGraphModel dx="893" dy="676" grid="1" gridSize="10" guides="1" tooltips="1" connect="1" arrows="1" fold="1" page="1" pageScale="1" pageWidth="827" pageHeight="1169" math="0" shadow="0">
            <root>
                <mxCell id="0"/>
                <mxCell id="1" parent="0"/>
                <mxCell id="2" value="auto done" style="edgeStyle=none;html=1;exitX=0.5;exitY=0;exitDx=0;exitDy=0;entryX=0.5;entryY=0;entryDx=0;entryDy=0;" edge="1" parent="1" source="4ZyU64WgCcXcsGFiC1t3-1" target="4ZyU64WgCcXcsGFiC1t3-2">
                    <mxGeometry relative="1" as="geometry"/>
                </mxCell>
                <mxCell id="4ZyU64WgCcXcsGFiC1t3-1" value="S_I2C" style="ellipse;whiteSpace=wrap;html=1;aspect=fixed;" parent="1" vertex="1">
                    <mxGeometry x="120" y="240" width="80" height="80" as="geometry"/>
                </mxCell>
                <mxCell id="4ZyU64WgCcXcsGFiC1t3-13" style="edgeStyle=orthogonalEdgeStyle;rounded=0;orthogonalLoop=1;jettySize=auto;html=1;exitX=0;exitY=1;exitDx=0;exitDy=0;entryX=1;entryY=1;entryDx=0;entryDy=0;" parent="1" source="4ZyU64WgCcXcsGFiC1t3-2" target="4ZyU64WgCcXcsGFiC1t3-1" edge="1">
                    <mxGeometry relative="1" as="geometry"/>
                </mxCell>
                <mxCell id="4ZyU64WgCcXcsGFiC1t3-28" style="edgeStyle=orthogonalEdgeStyle;rounded=0;orthogonalLoop=1;jettySize=auto;html=1;exitX=1;exitY=0.5;exitDx=0;exitDy=0;entryX=0;entryY=0.5;entryDx=0;entryDy=0;" parent="1" source="4ZyU64WgCcXcsGFiC1t3-2" target="4ZyU64WgCcXcsGFiC1t3-3" edge="1">
                    <mxGeometry relative="1" as="geometry"/>
                </mxCell>
                <mxCell id="4ZyU64WgCcXcsGFiC1t3-2" value="S_REC" style="ellipse;whiteSpace=wrap;html=1;aspect=fixed;" parent="1" vertex="1">
                    <mxGeometry x="320" y="240" width="80" height="80" as="geometry"/>
                </mxCell>
                <mxCell id="4ZyU64WgCcXcsGFiC1t3-3" value="S_PLAY" style="ellipse;whiteSpace=wrap;html=1;aspect=fixed;" parent="1" vertex="1">
                    <mxGeometry x="520" y="240" width="80" height="80" as="geometry"/>
                </mxCell>
                <mxCell id="4ZyU64WgCcXcsGFiC1t3-9" value="&lt;div&gt;key 2 (stop)&lt;/div&gt;wait for 32s" style="edgeLabel;html=1;align=center;verticalAlign=middle;resizable=0;points=[];" parent="1" vertex="1" connectable="0">
                    <mxGeometry x="280.001247991648" y="259.99572875253807" as="geometry">
                        <mxPoint x="182" y="-5" as="offset"/>
                    </mxGeometry>
                </mxCell>
                <mxCell id="4ZyU64WgCcXcsGFiC1t3-11" value="" style="curved=1;endArrow=classic;html=1;rounded=0;entryX=0;entryY=0;entryDx=0;entryDy=0;exitX=0;exitY=1;exitDx=0;exitDy=0;" parent="1" source="4ZyU64WgCcXcsGFiC1t3-1" target="4ZyU64WgCcXcsGFiC1t3-1" edge="1">
                    <mxGeometry width="50" height="50" relative="1" as="geometry">
                        <mxPoint x="90" y="310" as="sourcePoint"/>
                        <mxPoint x="100" y="260" as="targetPoint"/>
                        <Array as="points">
                            <mxPoint x="80" y="320"/>
                            <mxPoint x="80" y="240"/>
                        </Array>
                    </mxGeometry>
                </mxCell>
                <mxCell id="4ZyU64WgCcXcsGFiC1t3-17" value="key 3 (reset)" style="edgeLabel;html=1;align=center;verticalAlign=middle;resizable=0;points=[];" parent="1" vertex="1" connectable="0">
                    <mxGeometry x="260.00427124746193" y="319.99572875253807" as="geometry">
                        <mxPoint x="4" y="1" as="offset"/>
                    </mxGeometry>
                </mxCell>
                <mxCell id="4ZyU64WgCcXcsGFiC1t3-19" value="key 3 (reset)" style="edgeLabel;html=1;align=center;verticalAlign=middle;resizable=0;points=[];" parent="1" vertex="1" connectable="0">
                    <mxGeometry x="40.00427124746193" y="279.99572875253807" as="geometry">
                        <mxPoint x="4" y="1" as="offset"/>
                    </mxGeometry>
                </mxCell>
                <mxCell id="4ZyU64WgCcXcsGFiC1t3-29" value="" style="curved=1;endArrow=classic;html=1;rounded=0;entryX=0.5;entryY=1;entryDx=0;entryDy=0;exitX=0.5;exitY=1;exitDx=0;exitDy=0;" parent="1" source="4ZyU64WgCcXcsGFiC1t3-3" target="4ZyU64WgCcXcsGFiC1t3-1" edge="1">
                    <mxGeometry width="50" height="50" relative="1" as="geometry">
                        <mxPoint x="360" y="450" as="sourcePoint"/>
                        <mxPoint x="410" y="400" as="targetPoint"/>
                        <Array as="points">
                            <mxPoint x="440" y="360"/>
                            <mxPoint x="280" y="360"/>
                        </Array>
                    </mxGeometry>
                </mxCell>
                <mxCell id="4ZyU64WgCcXcsGFiC1t3-30" value="key 3 (reset)" style="edgeLabel;html=1;align=center;verticalAlign=middle;resizable=0;points=[];" parent="1" vertex="1" connectable="0">
                    <mxGeometry x="360.00427124746193" y="369.99572875253807" as="geometry">
                        <mxPoint x="4" y="1" as="offset"/>
                    </mxGeometry>
                </mxCell>
            </root>
        </mxGraphModel>
    </diagram>
</mxfile>